<?xml version="1.0" standalone="no"?>
<!DOCTYPE svg PUBLIC "-//W3C//DTD SVG 20010904//EN"
 "http://www.w3.org/TR/2001/REC-SVG-20010904/DTD/svg10.dtd">
<svg version="1.0" xmlns="http://www.w3.org/2000/svg"
 width="1280.000000pt" height="1086.000000pt" viewBox="0 0 1280.000000 1086.000000"
 preserveAspectRatio="xMidYMid meet">
<metadata>
Created by potrace 1.15, written by Peter Selinger 2001-2017
</metadata>
<g transform="translate(0.000000,1086.000000) scale(0.100000,-0.100000)"
fill="#000000" stroke="none">
<path d="M8575 10832 c-31 -9 -105 -15 -195 -17 -95 -1 -154 -6 -170 -15 -14
-7 -56 -38 -95 -69 -103 -84 -127 -99 -170 -106 -94 -17 -175 -101 -229 -237
-20 -51 -57 -123 -81 -160 -34 -51 -53 -96 -80 -194 -20 -70 -48 -147 -62
-172 l-27 -45 23 -66 c13 -36 25 -90 28 -121 5 -53 73 -238 99 -270 6 -8 10
-29 7 -47 l-5 -33 -27 19 c-14 10 -57 34 -96 55 -38 20 -101 61 -140 92 -103
83 -181 132 -239 149 -28 8 -125 29 -216 47 -192 38 -326 42 -425 14 -85 -25
-153 -99 -296 -322 -77 -121 -140 -207 -194 -264 -112 -119 -188 -215 -288
-360 -95 -140 -141 -191 -195 -219 -47 -24 -361 -344 -468 -476 -45 -55 -150
-194 -234 -310 -318 -437 -655 -872 -744 -960 -60 -60 -82 -67 -276 -96 -203
-29 -237 -44 -298 -127 -99 -134 -156 -280 -155 -402 0 -41 9 -131 21 -200 12
-69 36 -226 54 -350 29 -201 32 -243 28 -395 -7 -304 -3 -506 14 -634 33 -245
131 -557 242 -771 53 -101 56 -112 84 -280 27 -160 129 -611 165 -734 9 -28
31 -141 50 -251 19 -110 41 -225 48 -255 l13 -55 -225 0 -226 0 -260 -48
c-384 -71 -412 -78 -765 -197 -403 -135 -489 -157 -689 -171 l-156 -10 -18 23
c-124 160 -208 208 -488 278 -141 36 -161 45 -209 95 -69 72 -120 82 -191 36
-63 -41 -129 -113 -193 -213 -64 -98 -87 -148 -141 -298 -50 -140 -64 -173
-200 -470 -256 -557 -286 -661 -265 -917 19 -237 62 -284 260 -286 100 -1 154
19 183 70 10 17 31 87 48 154 16 67 36 134 44 148 18 36 144 155 240 228 108
81 410 285 462 311 23 12 86 29 140 37 142 23 187 40 227 86 27 32 50 45 120
69 153 52 186 55 656 55 388 0 455 -2 620 -22 393 -48 641 -52 920 -17 69 8
224 19 345 23 191 7 226 10 267 28 63 29 277 243 396 398 79 103 96 131 117
200 65 212 197 887 261 1338 18 121 20 130 48 150 58 41 75 118 131 602 14
116 25 231 25 256 l0 45 218 130 c276 166 475 295 627 406 168 124 195 147
195 166 1 18 153 160 265 247 35 28 155 99 267 159 112 61 265 145 342 189
l139 79 25 -33 c52 -70 200 -206 285 -263 226 -150 505 -250 802 -287 72 -9
147 -10 275 -3 361 18 403 14 800 -81 137 -33 321 -68 470 -90 287 -42 303
-46 440 -90 58 -18 121 -36 140 -40 30 -5 40 -14 64 -61 67 -128 171 -208 405
-314 138 -61 146 -66 192 -125 67 -85 103 -102 176 -80 64 20 168 100 247 190
79 91 106 130 189 277 37 65 172 275 301 467 283 421 337 523 367 692 27 152
24 314 -7 356 -42 56 -140 93 -250 94 -106 1 -138 -29 -205 -196 -49 -123 -68
-147 -171 -215 -106 -71 -224 -132 -496 -255 l-192 -87 -148 -2 c-149 -3 -190
-11 -227 -46 -19 -17 -25 -17 -90 -4 -38 7 -160 29 -270 49 -350 62 -622 132
-1115 286 -295 93 -396 130 -895 329 -612 245 -685 278 -845 373 -170 103
-261 140 -390 160 -159 26 -193 28 -316 17 -141 -12 -584 -75 -667 -94 l-59
-14 33 34 c56 57 149 112 341 198 257 116 477 246 652 385 89 72 364 338 415
403 l35 44 111 -50 c96 -43 115 -55 134 -88 34 -59 59 -63 333 -49 175 8 255
8 318 0 179 -24 438 3 715 76 156 41 253 79 442 175 131 66 153 74 260 92 115
19 136 26 223 74 l45 25 226 -6 c257 -8 278 -5 423 66 l81 38 90 -9 c50 -5
105 -14 124 -19 29 -9 43 -7 87 13 64 30 89 69 81 131 -4 40 -2 43 29 59 52
24 76 70 71 136 -2 30 -7 64 -11 76 -6 16 -2 23 18 32 58 26 73 90 38 159
l-20 39 28 16 c35 20 54 78 38 113 -13 28 -100 68 -198 90 -123 27 -215 29
-390 7 -91 -12 -201 -25 -245 -30 -135 -15 -151 -28 -264 -201 -61 -93 -136
-178 -189 -215 -47 -32 -359 -156 -454 -180 -85 -21 -325 -39 -419 -32 -41 3
-113 17 -160 30 -95 28 -220 51 -389 72 -146 18 -482 18 -568 0 -71 -14 -63
-20 -115 76 -39 70 -97 149 -154 209 l-35 37 73 12 c118 20 183 16 281 -18 48
-17 112 -36 143 -42 31 -7 76 -20 98 -31 47 -21 109 -24 156 -8 26 9 31 16 31
42 0 54 18 100 61 156 32 43 39 59 34 80 -3 14 -9 37 -12 50 -8 33 19 51 77
51 26 0 49 2 52 6 3 3 2 22 -3 42 -13 57 4 67 114 69 81 2 94 5 110 24 22 27
21 40 -2 97 -11 26 -25 81 -31 122 -7 41 -18 98 -25 126 -19 76 -5 129 57 207
43 55 45 61 52 170 4 66 9 86 36 127 18 28 37 50 43 50 23 0 154 91 165 114
23 50 -5 104 -113 216 -48 50 -116 138 -163 210 -124 191 -128 196 -164 224
-26 19 -52 28 -99 32 -35 4 -75 14 -89 23 -38 24 -269 140 -325 163 -104 42
-126 46 -180 30z"/>
</g>
</svg>
